<?xml version="1.0" encoding="utf-8"?>
<svg xmlns="http://www.w3.org/2000/svg" viewBox="0 0 500 500">
  <path fill="#8F8690" opacity="1.000000" stroke="none" d="M 266.22 97.06 C 266.22 97.06 266.157 96.896 266.391 96.599 C 266.791 95.938 266.957 95.574 267.123 95.211 C 268.548 93.941 269.974 92.671 272.094 91.377 C 274.248 90.419 275.707 89.484 277.165 88.549 C 277.616 88.509 278.067 88.468 278.92 88.825 C 280.374 90.467 281.345 91.792 282.491 92.942 C 288.062 98.532 293.68 104.075 299.09 109.899 C 298.37 111.564 297.841 112.963 297.276 114.733 C 297.58 116.516 297.921 117.929 298.107 119.661 C 297.682 121.123 297.411 122.266 296.75 123.386 C 293.322 122.718 290.04 120.991 287.292 121.615 C 276.289 124.112 265.992 120.1 255.442 118.837 C 247.246 117.856 247.309 117.327 247.307 108.893 C 251.248 105.17 255.86 104.975 260.501 105.338 C 264.172 105.626 265.68 104.099 265.657 100.253 C 265.969 98.982 266.094 98.021 266.22 97.06 M 288.118 105.613 C 288.151 101.554 286.18 98.976 282.169 98.492 C 278.587 98.06 275.632 99.169 274.463 103.909 C 273.449 108.387 275.882 111.01 279.714 111.905 C 283.979 112.9 286.887 110.685 288.118 105.613 Z"/>
  <path fill="#D69A6A" opacity="1.000000" stroke="none" d="M 193.472 240.709 C 193.528 218.42 193.644 196.131 193.621 173.842 C 193.603 156.373 193.404 138.905 193.307 121.436 C 193.287 117.789 193.364 114.142 193.877 110.004 C 195.966 107.477 197.573 105.442 199.171 103.754 C 199.165 110.202 199.168 116.302 198.93 122.739 C 198.518 125.048 198.199 127.021 198.197 128.994 C 198.167 161.805 198.086 194.617 198.253 227.428 C 198.285 233.701 199.295 239.973 199.92 246.239 C 200.147 248.517 200.567 250.775 200.898 253.042 C 201.42 253.049 201.941 253.055 202.463 253.061 C 203.368 249.175 204.273 245.289 205.415 241.729 C 205.667 244.809 205.751 247.566 205.683 250.32 C 205.561 255.349 205.349 260.376 205.174 265.848 C 205.173 268.66 205.171 271.027 204.847 273.494 C 203.476 274.694 202.428 275.797 201.444 276.832 C 200.262 274.138 199.222 271.767 198.179 269.064 C 198.177 268.291 198.176 267.849 198.406 267.108 C 198.149 260.339 197.66 253.869 197.388 247.121 C 197.355 244.039 198.531 240.274 193.472 240.709 Z"/>
  <path fill="#F9B981" opacity="1.000000" stroke="none" d="M 368.826 109.965 C 368.909 158.939 368.991 207.912 368.41 257.224 C 366.558 257.507 365.371 257.451 364.182 256.997 C 364.179 255.533 364.178 254.468 364.417 253.07 C 364.495 248.292 364.333 243.847 364.094 238.992 C 363.737 235.955 363.215 233.329 363.211 230.703 C 363.159 192.805 363.128 154.907 363.229 117.009 C 363.243 111.702 363.166 106.736 358.508 103.032 C 357.659 102.357 357.617 100.666 357.597 99.441 C 360.974 100.777 363.956 102.115 366.937 103.454 C 366.984 103.614 367.03 103.774 367.187 104.579 C 367.808 106.804 368.317 108.385 368.826 109.965 Z"/>
  <path fill="#CB8356" opacity="1.000000" stroke="none" d="M 368.974 301.372 C 367.946 304.3 366.918 307.229 365.147 310.317 C 361.604 310.78 358.803 311.345 356.001 311.348 C 306.835 311.402 257.668 311.399 208.501 311.377 C 199.11 311.373 195.247 307.477 195.152 297.907 C 195.07 289.742 195.145 281.575 195.489 273.406 C 196.276 273.403 196.726 273.401 197.177 273.858 C 197.185 277.678 197.192 281.04 197.268 284.813 C 197.615 288.686 198.055 292.144 198.139 295.611 C 198.361 304.681 201.972 308.403 210.911 308.404 C 260.666 308.41 310.421 308.4 360.537 308.384 C 362.346 307.394 363.794 306.415 365.46 305.233 C 366.206 304.179 366.733 303.33 367.436 302.325 C 367.828 301.931 367.972 301.655 368.276 301.346 C 368.509 301.35 368.974 301.372 368.974 301.372 Z"/>
  <path fill="#AF5B4B" opacity="1.000000" stroke="none" d="M 195.151 273.408 C 195.145 281.575 195.07 289.742 195.152 297.907 C 195.247 307.477 199.11 311.373 208.501 311.377 C 257.668 311.399 306.835 311.402 356.001 311.348 C 358.803 311.345 361.604 310.78 364.836 310.49 C 359.188 317.232 351.133 315.339 343.586 315.348 C 298.128 315.403 252.67 315.379 207.212 315.371 C 199.973 315.37 193.197 308.761 193.177 301.524 C 193.133 285.706 193.191 269.888 193.743 253.707 C 194.573 253.368 194.867 253.391 195.162 253.877 C 195.184 258.688 195.206 263.035 195.196 267.813 C 195.16 269.964 195.156 271.686 195.151 273.408 M 353.29 314.429 C 354.574 314.356 355.858 314.284 357.142 314.211 C 357.129 314.032 357.116 313.853 357.103 313.674 C 306.418 313.674 255.733 313.674 205.048 313.674 C 205.048 313.926 205.048 314.178 205.048 314.429 C 254.157 314.429 303.267 314.429 353.29 314.429 Z"/>
  <path fill="#DFA573" opacity="1.000000" stroke="none" d="M 199.171 122.402 C 199.168 116.302 199.165 110.202 199.389 103.514 C 200.788 102.395 201.96 101.863 203.161 101.725 C 203.796 104.188 204.019 106.504 205.132 108.253 C 206.018 109.646 208.084 111.324 209.463 111.191 C 216.371 110.522 223.257 109.473 230.088 108.217 C 235.791 107.168 241.417 105.688 247.058 104.319 C 249.302 103.774 251.493 103.013 253.945 102.28 C 251.828 100.329 250.374 98.989 248.92 97.649 C 250.733 97.59 252.546 97.531 254.913 97.867 C 258.801 99.029 262.135 99.796 265.47 100.563 C 265.68 104.099 264.172 105.626 260.501 105.338 C 255.86 104.975 251.248 105.17 247.028 109.085 C 245.048 111.461 243.558 113.37 241.83 115.32 C 241.592 115.361 241.12 115.472 240.688 115.438 C 238.238 115.398 236.219 115.391 233.732 115.353 C 227.552 115.641 221.841 115.961 215.841 116.305 C 215.169 116.368 214.785 116.407 214.159 116.571 C 213.681 116.964 213.444 117.234 213.108 117.703 C 212.833 118.154 212.603 118.339 212.098 118.577 C 211.654 118.948 211.433 119.199 211.218 119.422 C 211.225 119.394 211.259 119.441 210.918 119.453 C 209.797 120.106 209.016 120.747 208.085 121.585 C 207.715 122.029 207.46 122.234 206.838 122.463 C 205.091 123.709 203.676 124.889 201.934 126.342 C 200.909 124.881 200.04 123.641 199.171 122.402 Z"/>
  <path fill="#E8AB73" opacity="1.000000" stroke="none" d="M 248.481 97.572 C 250.374 98.989 251.828 100.329 253.945 102.28 C 251.493 103.013 249.302 103.774 247.058 104.319 C 241.417 105.688 235.791 107.168 230.088 108.217 C 223.257 109.473 216.371 110.522 209.463 111.191 C 208.084 111.324 206.018 109.646 205.132 108.253 C 204.019 106.504 203.796 104.188 203.278 101.39 C 204.321 99.642 205.274 98.62 206.227 97.598 C 220.166 97.564 234.105 97.529 248.481 97.572 Z"/>
  <path fill="#988E97" opacity="1.000000" stroke="none" d="M 299.281 109.634 C 293.68 104.075 288.062 98.532 282.491 92.942 C 281.345 91.792 280.374 90.467 279.254 88.895 C 285.388 87.333 290.281 89.667 294.575 94.578 C 294.876 95.529 294.986 96.052 295.096 96.575 C 295.096 96.575 295.244 96.995 295.308 97.482 C 295.624 98.444 295.875 98.92 296.164 99.791 C 296.416 104.4 298.701 105.735 302.737 105.332 C 311.446 104.462 317.135 108.723 320.675 116.744 C 320.838 117.524 320.96 117.964 321.07 118.843 C 320.979 121.329 320.9 123.376 320.477 125.396 C 318.736 123.894 317.211 122.518 315.969 120.922 C 312.325 116.236 310.317 109.712 302.448 109.523 C 301.157 109.576 300.219 109.605 299.281 109.634 Z"/>
  <path fill="#DD9D68" opacity="1.000000" stroke="none" d="M 296.127 99.395 C 295.875 98.92 295.624 98.444 295.373 97.694 C 316.119 97.424 336.866 97.487 357.612 97.384 C 361.97 97.363 365.222 98.712 367.037 103.098 C 363.956 102.115 360.974 100.777 357.126 99.427 C 336.215 99.408 316.171 99.402 296.127 99.395 Z"/>
  <path fill="#F6B178" opacity="1.000000" stroke="none" d="M 364.183 257.395 C 365.371 257.451 366.558 257.507 368.329 257.675 C 368.971 263.673 369.028 269.558 368.66 276.085 C 367.881 278.949 367.525 281.172 366.825 283.276 C 365.873 279.926 365.088 276.716 364.705 273.459 C 364.314 270.132 364.319 266.759 364.153 263.074 C 364.157 262.3 364.158 261.857 364.164 261.013 C 364.174 259.54 364.179 258.467 364.183 257.395 Z"/>
  <path fill="#C78C61" opacity="1.000000" stroke="none" d="M 205.87 97.505 C 205.274 98.62 204.321 99.642 203.25 100.998 C 201.96 101.863 200.788 102.395 199.398 103.166 C 197.573 105.442 195.966 107.477 193.912 109.596 C 192.933 102.254 197.6 97.502 205.87 97.505 Z"/>
  <path fill="#E69969" opacity="1.000000" stroke="none" d="M 367.169 283.396 C 367.525 281.172 367.881 278.949 368.592 276.496 C 369.006 284.327 369.063 292.388 369.047 300.91 C 368.974 301.372 368.509 301.35 368.055 301.011 C 367.457 294.912 367.313 289.154 367.169 283.396 Z"/>
  <path fill="#C78C61" opacity="1.000000" stroke="none" d="M 265.657 100.253 C 262.135 99.796 258.801 99.029 255.302 97.925 C 258.531 97.501 261.924 97.414 265.769 97.194 C 266.094 98.021 265.969 98.982 265.657 100.253 Z"/>
  <path fill="#C78C61" opacity="1.000000" stroke="none" d="M 193.382 241.123 C 198.531 240.274 197.355 244.039 197.138 247.122 C 196.672 247.4 196.174 247.402 195.88 247.178 C 194.869 246.846 194.15 246.738 193.432 246.631 C 193.385 244.933 193.338 243.235 193.382 241.123 Z"/>
  <path fill="#CB8356" opacity="1.000000" stroke="none" d="M 193.354 247.037 C 194.15 246.738 194.869 246.846 195.88 247.577 C 195.836 249.939 195.499 251.676 195.162 253.414 C 194.867 253.391 194.573 253.368 193.836 253.3 C 193.355 251.318 193.315 249.381 193.354 247.037 Z"/>
  <path fill="#988E97" opacity="1.000000" stroke="none" d="M 276.82 88.49 C 275.707 89.484 274.248 90.419 272.427 91.36 C 273.534 90.387 275.005 89.409 276.82 88.49 Z"/>
  <path fill="#E69969" opacity="1.000000" stroke="none" d="M 368.941 109.596 C 368.317 108.385 367.808 106.804 367.256 104.82 C 367.828 106.02 368.443 107.624 368.941 109.596 Z"/>
  <path fill="#8B818F" opacity="1.000000" stroke="none" d="M 242.068 115.278 C 243.558 113.37 245.048 111.461 246.817 109.36 C 247.309 117.327 247.246 117.856 255.442 118.837 C 265.992 120.1 276.289 124.112 287.292 121.615 C 290.04 120.991 293.322 122.718 296.773 123.627 C 297.188 123.89 297.221 124.373 297.205 124.752 C 297.185 125.887 297.181 126.643 297.194 127.773 C 298.934 129.517 300.657 130.887 302.381 132.258 C 303.307 130.965 304.234 129.673 305.162 128.052 C 305.173 127.285 305.182 126.847 305.538 126.467 C 311.116 128.505 314.238 132.475 316.24 137.667 C 316.238 137.835 316.25 138.17 315.931 138.047 C 315.177 138.02 314.74 138.117 313.988 138.079 C 313.221 137.906 312.769 137.868 311.848 137.733 C 304.894 137.576 298.408 137.439 291.923 137.474 C 277.292 137.553 262.662 137.717 247.63 137.775 C 245.865 137.633 244.5 137.563 242.949 137.151 C 242.23 135.142 241.295 133.488 241.243 131.807 C 241.088 126.737 241.277 121.657 241.352 116.563 C 241.373 116.544 241.354 116.492 241.544 116.339 C 241.938 115.917 242.049 115.615 242.068 115.278 Z"/>
  <path fill="#D5976A" opacity="1.000000" stroke="none" d="M 288.046 106.392 C 286.887 110.685 283.979 112.9 279.714 111.905 C 275.882 111.01 273.449 108.387 275.061 103.68 C 279.788 104.432 283.917 105.412 288.046 106.392 Z"/>
  <path fill="#DA9F6D" opacity="1.000000" stroke="none" d="M 288.082 106.003 C 283.917 105.412 279.788 104.432 275.234 103.361 C 275.632 99.169 278.587 98.06 282.169 98.492 C 286.18 98.976 288.151 101.554 288.082 106.003 Z"/>
  <path fill="#A59EAB" opacity="1.000000" stroke="none" d="M 297.221 124.373 C 297.221 124.373 297.188 123.89 297.165 123.649 C 297.411 122.266 297.682 121.123 298.5 119.678 C 300.773 119.042 302.498 118.708 304.453 118.676 C 304.829 120.773 304.974 122.567 304.682 124.373 C 301.903 124.381 299.562 124.377 297.221 124.373 Z"/>
  <path fill="#B8B0BE" opacity="1.000000" stroke="none" d="M 304.223 118.374 C 302.498 118.708 300.773 119.042 298.655 119.358 C 297.921 117.929 297.58 116.516 297.699 114.746 C 300.445 114.378 302.73 114.368 305.02 114.704 C 304.757 116.158 304.49 117.266 304.223 118.374 Z"/>
  <path fill="#C4B8CC" opacity="1.000000" stroke="none" d="M 305.016 114.359 C 302.73 114.368 300.445 114.378 297.736 114.374 C 297.841 112.963 298.37 111.564 299.09 109.899 C 300.219 109.605 301.157 109.576 302.681 109.795 C 303.85 111.482 304.433 112.92 305.016 114.359 Z"/>
  <path fill="#D99F71" opacity="1.000000" stroke="none" d="M 198.93 122.739 C 200.04 123.641 200.909 124.881 201.934 126.342 C 203.676 124.889 205.091 123.709 206.815 122.885 C 206.809 125.86 206.224 128.479 206.218 131.099 C 206.151 159.289 206.157 187.479 206.22 215.669 C 206.224 217.581 206.848 219.491 207.183 221.846 C 207.183 224.661 207.183 227.032 206.946 229.723 C 206.198 233.829 205.688 237.616 205.177 241.403 C 204.273 245.289 203.368 249.175 202.463 253.061 C 201.941 253.055 201.42 253.049 200.898 253.042 C 200.567 250.775 200.147 248.517 199.92 246.239 C 199.295 239.973 198.285 233.701 198.253 227.428 C 198.086 194.617 198.167 161.805 198.197 128.994 C 198.199 127.021 198.518 125.048 198.93 122.739 Z"/>
  <path fill="#D49465" opacity="1.000000" stroke="none" d="M 197.199 284.403 C 197.192 281.04 197.185 277.678 197.401 273.587 C 197.81 271.704 197.995 270.55 198.181 269.395 C 199.222 271.767 200.262 274.138 201.444 276.832 C 202.428 275.797 203.476 274.694 205.046 273.7 C 206.095 274.006 206.623 274.204 207.156 274.819 C 207.158 276.626 207.153 278.016 206.82 279.518 C 206.055 280.887 205.619 282.145 205.184 283.839 C 205.183 286.317 205.182 288.356 204.779 290.396 C 202.924 289.449 201.38 288.611 200.044 287.52 C 198.966 286.64 198.138 285.453 197.199 284.403 Z"/>
  <path fill="#D49465" opacity="1.000000" stroke="none" d="M 205.415 241.729 C 205.688 237.616 206.198 233.829 207.179 230.033 C 207.829 232.149 208.008 234.275 208.183 236.864 C 207.843 246.687 207.507 256.045 206.839 265.403 C 206.062 265.404 205.618 265.404 205.174 265.404 C 205.349 260.376 205.561 255.349 205.683 250.32 C 205.751 247.566 205.667 244.809 205.415 241.729 Z"/>
  <path fill="#D49465" opacity="1.000000" stroke="none" d="M 195.162 253.877 C 195.499 251.676 195.836 249.939 196.174 247.802 C 196.174 247.402 196.672 247.4 196.922 247.399 C 197.66 253.869 198.149 260.339 198.037 267.106 C 196.701 267.396 195.964 267.389 195.228 267.383 C 195.206 263.035 195.184 258.688 195.162 253.877 Z"/>
  <path fill="#D28F68" opacity="1.000000" stroke="none" d="M 205.174 265.848 C 205.618 265.404 206.062 265.404 206.84 265.8 C 207.167 268.933 207.159 271.667 207.151 274.402 C 206.623 274.204 206.095 274.006 205.369 273.602 C 205.171 271.027 205.173 268.66 205.174 265.848 Z"/>
  <path fill="#C78C61" opacity="1.000000" stroke="none" d="M 195.196 267.813 C 195.964 267.389 196.701 267.396 197.806 267.405 C 198.176 267.849 198.177 268.291 198.179 269.064 C 197.995 270.55 197.81 271.704 197.4 273.129 C 196.726 273.401 196.276 273.403 195.489 273.406 C 195.156 271.686 195.16 269.964 195.196 267.813 Z"/>
  <path fill="#E8A977" opacity="1.000000" stroke="none" d="M 296.164 99.791 C 316.171 99.402 336.215 99.408 356.731 99.429 C 357.617 100.666 357.659 102.357 358.508 103.032 C 363.166 106.736 363.243 111.702 363.229 117.009 C 363.128 154.907 363.159 192.805 363.211 230.703 C 363.215 233.329 363.737 235.955 363.863 239.295 C 363.524 241.81 363.339 243.61 362.829 245.307 C 359.995 240.794 357.392 236.474 352.449 233.825 C 352.424 199.823 352.502 166.278 352.321 132.734 C 352.296 128.239 350.956 123.75 350.12 118.981 C 349.429 118.182 348.843 117.659 348.072 116.934 C 347.379 116.54 346.871 116.35 346.095 115.954 C 344.949 115.66 344.071 115.57 342.756 115.412 C 340.261 115.375 338.203 115.407 335.69 115.39 C 331.564 115.374 327.893 115.408 323.846 115.429 C 322.525 115.745 321.579 116.074 320.634 116.403 C 317.135 108.723 311.446 104.462 302.737 105.332 C 298.701 105.735 296.416 104.4 296.164 99.791 Z"/>
  <path fill="#F6B178" opacity="1.000000" stroke="none" d="M 363.154 245.411 C 363.339 243.61 363.524 241.81 363.94 239.706 C 364.333 243.847 364.495 248.292 364.163 253.071 C 363.5 253.406 363.331 253.406 363.163 252.963 C 363.161 250.149 363.158 247.78 363.154 245.411 Z"/>
  <path fill="#F2A970" opacity="1.000000" stroke="none" d="M 363.161 253.407 C 363.331 253.406 363.5 253.406 363.923 253.404 C 364.178 254.468 364.179 255.533 364.182 256.997 C 364.179 258.467 364.174 259.54 363.849 260.909 C 363.406 258.607 363.284 256.007 363.161 253.407 Z"/>
  <path fill="#DA925D" opacity="1.000000" stroke="none" d="M 197.268 284.813 C 198.138 285.453 198.966 286.64 200.044 287.52 C 201.38 288.611 202.924 289.449 204.975 290.535 C 205.82 290.882 206.023 291.127 206.232 291.718 C 206.909 292.814 207.538 293.599 208.364 294.681 C 212.375 296.443 216.154 299.068 220.007 299.183 C 243.912 299.896 267.833 300.147 291.75 300.248 C 294.561 300.259 297.38 298.421 300.563 297.431 C 302.283 297.133 303.636 296.845 305.025 296.434 C 305.062 296.311 305.114 296.058 305.442 295.905 C 306.986 295.024 308.202 294.297 309.731 293.462 C 312.699 291.019 315.354 288.683 318.248 286.222 C 318.73 285.829 318.972 285.562 319.358 285.1 C 319.502 284.904 319.934 284.681 319.978 285.114 C 319.739 287.166 319.457 288.785 319.007 290.694 C 316.366 293.622 314.043 296.424 311.377 298.85 C 308.705 301.281 309.394 302.786 312.323 303.816 C 313.691 304.296 315.25 304.339 316.728 304.382 C 329.327 304.75 341.934 304.953 354.523 305.535 C 356.447 305.624 358.294 307.4 360.176 308.396 C 310.421 308.4 260.666 308.41 210.911 308.404 C 201.972 308.403 198.361 304.681 198.139 295.611 C 198.055 292.144 197.615 288.686 197.268 284.813 Z"/>
  <path fill="#E09760" opacity="1.000000" stroke="none" d="M 360.537 308.384 C 358.294 307.4 356.447 305.624 354.523 305.535 C 341.934 304.953 329.327 304.75 316.728 304.382 C 315.25 304.339 313.691 304.296 312.323 303.816 C 309.394 302.786 308.705 301.281 311.377 298.85 C 314.043 296.424 316.366 293.622 319.345 290.632 C 323.625 287.321 327.4 284.362 331.32 281.725 C 333.047 286.673 335.65 289.937 341.162 289.415 C 342.147 289.322 343.148 289.394 344.142 289.404 C 353.234 289.494 358.518 293.507 361.475 302.037 C 361.961 303.437 363.948 304.317 365.242 305.437 C 363.794 306.415 362.346 307.394 360.537 308.384 Z"/>
  <path fill="#E39B65" opacity="1.000000" stroke="none" d="M 365.46 305.233 C 363.948 304.317 361.961 303.437 361.475 302.037 C 358.518 293.507 353.234 289.494 344.142 289.404 C 343.148 289.394 342.147 289.322 341.162 289.415 C 335.65 289.937 333.047 286.673 331.546 281.478 C 334.143 278.075 336.66 275.239 339.586 272.48 C 344.693 272.657 349.481 273.346 354.055 272.642 C 356.878 272.207 358.627 271.734 359.943 274.686 C 360.278 275.438 361.402 275.839 362.173 276.828 C 362.805 284.484 363.289 291.731 364.181 298.927 C 364.342 300.219 366.191 301.301 367.261 302.481 C 366.733 303.33 366.206 304.179 365.46 305.233 Z"/>
  <path fill="#F2A970" opacity="1.000000" stroke="none" d="M 367.436 302.325 C 366.191 301.301 364.342 300.219 364.181 298.927 C 363.289 291.731 362.805 284.484 362.177 276.374 C 362.172 272.462 362.172 269.431 362.384 266.184 C 363.114 265.114 363.632 264.26 364.15 263.406 C 364.319 266.759 364.314 270.132 364.705 273.459 C 365.088 276.716 365.873 279.926 366.825 283.276 C 367.313 289.154 367.457 294.912 367.822 301.007 C 367.972 301.655 367.828 301.931 367.436 302.325 Z"/>
  <path fill="#E2DAEA" opacity="1.000000" stroke="none" d="M 336.145 115.439 C 338.203 115.407 340.261 115.375 342.843 115.712 C 344.365 116.107 345.363 116.133 346.362 116.159 C 346.871 116.35 347.379 116.54 348.044 117.313 C 348.185 118.399 348.171 118.904 347.973 119.639 C 348.58 121.047 349.369 122.225 350.165 123.82 C 350.172 125.625 350.172 127.014 349.819 128.537 C 348.364 134.273 347.112 139.849 346.203 145.481 C 345.368 150.662 341.704 153.335 336.526 153.329 C 325.822 153.315 315.115 153.752 304.413 154.125 C 296.801 154.391 289.189 155.244 281.589 155.125 C 273.825 155.003 266.05 154.232 258.325 153.352 C 246.355 151.987 234.408 150.396 222.485 148.668 C 218.703 148.12 216.444 148.764 215.717 152.949 C 215.386 154.856 214.053 156.59 213.153 158.002 C 213.145 153.681 212.898 149.739 213.226 145.845 C 214.056 135.979 215.144 126.134 216.129 116.281 C 221.841 115.961 227.552 115.641 233.738 115.61 C 234.208 116.071 234.204 116.243 233.821 116.41 C 232.687 116.405 231.93 116.404 230.793 116.407 C 225.653 117.383 221.449 121.131 221.445 124.336 C 221.429 136.634 231.322 143.277 239.389 144.251 C 245.954 145.044 252.612 145.272 259.234 145.355 C 272.17 145.517 285.111 145.49 298.048 145.381 C 314.797 145.24 328.304 138.408 338.741 125.34 C 340.58 123.037 340.11 121.56 337.711 120.157 C 335.79 119.034 334.012 117.667 332.527 116.404 C 333.97 116.079 335.057 115.759 336.145 115.439 Z"/>
  <path fill="#D49465" opacity="1.000000" stroke="none" d="M 207.184 221.402 C 206.848 219.491 206.224 217.581 206.22 215.669 C 206.157 187.479 206.151 159.289 206.218 131.099 C 206.224 128.479 206.809 125.86 207.149 122.819 C 207.46 122.234 207.715 122.029 208.344 121.717 C 209.265 121.935 209.779 122.217 210.325 122.805 C 210.295 123.517 210.231 123.922 209.969 124.375 C 209.888 124.777 210.007 125.13 210.186 125.944 C 210.19 153.063 210.134 179.722 209.859 206.721 C 208.821 211.842 208.002 216.622 207.184 221.402 Z"/>
  <path fill="#DCD4E4" opacity="1.000000" stroke="none" d="M 210.078 206.381 C 210.134 179.722 210.19 153.063 210.231 125.655 C 210.2 124.713 210.184 124.52 210.168 124.327 C 210.231 123.922 210.295 123.517 210.49 122.523 C 210.835 121.103 211.047 120.272 211.259 119.441 C 211.259 119.441 211.225 119.394 211.468 119.344 C 211.915 119.016 212.118 118.737 212.321 118.458 C 212.603 118.339 212.833 118.154 213.341 117.569 C 213.915 116.971 214.158 116.709 214.401 116.446 C 214.785 116.407 215.169 116.368 215.841 116.305 C 215.144 126.134 214.056 135.979 213.226 145.845 C 212.898 149.739 213.145 153.681 213.152 158.439 C 213.173 161.319 213.173 163.36 212.959 165.644 C 212.887 167.059 213.028 168.232 213.169 169.778 C 213.17 170.901 213.17 171.649 212.807 172.546 C 212.353 180.597 212.262 188.5 212.172 196.83 C 212.504 200.972 212.835 204.687 213.166 208.838 C 213.163 211.312 213.161 213.349 212.829 215.501 C 212.089 216.885 211.679 218.152 211.258 219.868 C 211.248 223.005 211.25 225.694 211.237 228.723 C 211.23 229.515 211.239 229.968 211.241 230.804 C 211.87 232.599 212.507 234.01 213.146 235.791 C 213.15 236.901 213.152 237.641 212.794 238.531 C 212.045 242.927 211.656 247.173 211.256 251.862 C 211.246 254.664 211.246 257.025 211.229 259.854 C 211.229 266.03 211.248 271.737 211.258 277.866 C 211.253 279.98 211.256 281.671 211.238 283.799 C 211.19 285.982 211.163 287.73 210.918 289.12 C 210.486 279.972 210.273 271.181 210.125 261.945 C 210.145 258.808 210.098 256.115 210.1 253.04 C 210.067 247.31 209.985 241.965 210.014 236.212 C 210.11 225.996 210.094 216.189 210.078 206.381 Z"/>
  <path fill="#CAC1D3" opacity="1.000000" stroke="none" d="M 234.2 116.414 C 234.204 116.243 234.208 116.071 234.206 115.641 C 236.219 115.391 238.238 115.398 240.739 115.695 C 241.267 116.154 241.31 116.323 241.354 116.492 C 241.354 116.492 241.373 116.544 240.96 116.54 C 236.631 118.406 237.148 122.101 237.359 125.307 C 237.646 129.672 238.582 133.994 239.219 138.356 C 239.199 138.379 239.159 138.424 238.788 138.418 C 237.673 138.404 236.931 138.396 236.182 137.984 C 235.162 130.888 231.748 124.435 234.19 117.156 C 234.195 116.909 234.2 116.414 234.2 116.414 Z"/>
  <path fill="#CA885E" opacity="1.000000" stroke="none" d="M 210.918 119.453 C 211.047 120.272 210.835 121.103 210.458 122.216 C 209.779 122.217 209.265 121.935 208.493 121.521 C 209.016 120.747 209.797 120.106 210.918 119.453 Z"/>
  <path fill="#B5ABC0" opacity="1.000000" stroke="none" d="M 241.544 116.339 C 241.31 116.323 241.267 116.154 241.171 115.728 C 241.12 115.472 241.592 115.361 241.83 115.32 C 242.049 115.615 241.938 115.917 241.544 116.339 Z"/>
  <path fill="#D99F71" opacity="1.000000" stroke="none" d="M 214.159 116.571 C 214.158 116.709 213.915 116.971 213.44 117.368 C 213.444 117.234 213.681 116.964 214.159 116.571 Z"/>
  <path fill="#D99F71" opacity="1.000000" stroke="none" d="M 212.098 118.577 C 212.118 118.737 211.915 119.016 211.462 119.373 C 211.433 119.199 211.654 118.948 212.098 118.577 Z"/>
  <path fill="#DDD5E5" opacity="1.000000" stroke="none" d="M 332.171 116.408 C 334.012 117.667 335.79 119.034 337.711 120.157 C 340.11 121.56 340.58 123.037 338.741 125.34 C 328.304 138.408 314.797 145.24 298.048 145.381 C 285.111 145.49 272.17 145.517 259.234 145.355 C 252.612 145.272 245.954 145.044 239.389 144.251 C 231.322 143.277 221.429 136.634 221.445 124.336 C 221.449 121.131 225.653 117.383 230.615 116.708 C 225.19 123.484 226.228 132.475 233.37 137.538 C 233.812 137.881 234.015 138.124 234.244 138.746 C 235.601 139.86 236.889 140.63 238.463 141.353 C 239.225 140.999 239.702 140.692 240.616 140.388 C 243.09 140.409 245.128 140.428 247.318 140.806 C 248.33 141.566 249.187 142.314 250.047 142.318 C 268.997 142.39 287.947 142.426 306.895 142.264 C 308.005 142.255 309.1 140.518 310.532 139.554 C 311.302 139.498 311.742 139.472 312.304 139.658 C 313.065 139.711 313.703 139.554 314.574 139.35 C 315.288 138.925 315.769 138.548 316.25 138.17 C 316.25 138.17 316.238 137.835 316.591 137.673 C 318.366 136.475 319.788 135.439 321.575 134.377 C 327.282 131.93 326.277 126.633 326.759 122.37 C 326.883 121.276 323.08 119.738 321.082 118.404 C 320.96 117.964 320.838 117.524 320.675 116.744 C 321.579 116.074 322.525 115.745 324.159 115.661 C 327.289 116.073 329.73 116.241 332.171 116.408 Z"/>
  <path fill="#908692" opacity="1.000000" stroke="none" d="M 321.211 134.403 C 319.788 135.439 318.366 136.475 316.592 137.505 C 314.238 132.475 311.116 128.505 305.529 126.126 C 305.155 125.272 305.137 124.816 305.119 124.361 C 304.974 122.567 304.829 120.773 304.453 118.676 C 304.49 117.266 304.757 116.158 305.02 114.704 C 304.433 112.92 303.85 111.482 303.034 109.772 C 310.317 109.712 312.325 116.236 315.969 120.922 C 317.211 122.518 318.736 123.894 320.551 125.84 C 321.051 129.008 321.131 131.705 321.211 134.403 Z"/>
  <path fill="#DCD4E4" opacity="1.000000" stroke="none" d="M 321.575 134.377 C 321.131 131.705 321.051 129.008 320.896 125.866 C 320.9 123.376 320.979 121.329 321.07 118.843 C 323.08 119.738 326.883 121.276 326.759 122.37 C 326.277 126.633 327.282 131.93 321.575 134.377 Z"/>
  <path fill="#E6A270" opacity="1.000000" stroke="none" d="M 364.153 263.074 C 363.632 264.26 363.114 265.114 362.079 265.974 C 360.76 263.007 359.825 260.061 359.191 257.052 C 358.331 252.973 357.13 249.298 352.281 247.971 C 352.321 243.102 352.396 238.692 352.472 234.282 C 357.392 236.474 359.995 240.794 362.829 245.307 C 363.158 247.78 363.161 250.149 363.163 252.963 C 363.284 256.007 363.406 258.607 363.843 261.311 C 364.158 261.857 364.157 262.3 364.153 263.074 Z"/>
  <path fill="#B5ABC0" opacity="1.000000" stroke="none" d="M 312.182 139.447 C 311.742 139.472 311.302 139.498 310.063 139.5 C 288.898 139.461 268.532 139.446 248.155 139.165 C 248.105 138.548 248.068 138.197 248.031 137.847 C 262.662 137.717 277.292 137.553 291.923 137.474 C 298.408 137.439 304.894 137.576 311.818 137.998 C 312.231 138.723 312.207 139.085 312.182 139.447 Z"/>
  <path fill="#B5ABC0" opacity="1.000000" stroke="none" d="M 239.239 138.334 C 238.582 133.994 237.646 129.672 237.359 125.307 C 237.148 122.101 236.631 118.406 240.94 116.558 C 241.277 121.657 241.088 126.737 241.243 131.807 C 241.295 133.488 242.23 135.142 242.681 137.361 C 241.481 138.054 240.36 138.194 239.239 138.334 Z"/>
  <path fill="#9A93A0" opacity="1.000000" stroke="none" d="M 304.682 124.373 C 305.137 124.816 305.155 125.272 305.182 126.068 C 305.182 126.847 305.173 127.285 304.745 128.058 C 301.943 128.062 299.56 127.731 297.176 127.4 C 297.181 126.643 297.185 125.887 297.205 124.752 C 299.562 124.377 301.903 124.381 304.682 124.373 Z"/>
  <path fill="#908692" opacity="1.000000" stroke="none" d="M 297.194 127.773 C 299.56 127.731 301.943 128.062 304.744 128.387 C 304.234 129.673 303.307 130.965 302.381 132.258 C 300.657 130.887 298.934 129.517 297.194 127.773 Z"/>
  <path fill="#CAC1D3" opacity="1.000000" stroke="none" d="M 239.219 138.356 C 240.36 138.194 241.481 138.054 242.869 137.703 C 244.5 137.563 245.865 137.633 247.63 137.775 C 248.068 138.197 248.105 138.548 248.018 139.362 C 247.683 140.069 247.44 140.276 247.166 140.447 C 245.128 140.428 243.09 140.409 240.495 140.14 C 239.678 139.4 239.418 138.912 239.159 138.424 C 239.159 138.424 239.199 138.379 239.219 138.356 Z"/>
  <path fill="#CAC1D3" opacity="1.000000" stroke="none" d="M 312.304 139.658 C 312.207 139.085 312.231 138.723 312.286 138.095 C 312.769 137.868 313.221 137.906 313.989 138.271 C 314.291 138.865 314.303 139.131 314.342 139.396 C 313.703 139.554 313.065 139.711 312.304 139.658 Z"/>
  <path fill="#DCD4E4" opacity="1.000000" stroke="none" d="M 314.574 139.35 C 314.303 139.131 314.291 138.865 314.304 138.406 C 314.74 138.117 315.177 138.02 315.931 138.047 C 315.769 138.548 315.288 138.925 314.574 139.35 Z"/>
  <path fill="#C28A6B" opacity="1.000000" stroke="none" d="M 209.859 206.721 C 210.094 216.189 210.11 225.996 209.585 236.149 C 208.758 236.463 208.472 236.431 208.187 236.4 C 208.008 234.275 207.829 232.149 207.417 229.714 C 207.183 227.032 207.183 224.661 207.183 221.846 C 208.002 216.622 208.821 211.842 209.859 206.721 Z"/>
  <path fill="#CA885E" opacity="1.000000" stroke="none" d="M 208.183 236.864 C 208.472 236.431 208.758 236.463 209.473 236.557 C 209.985 241.965 210.067 247.31 209.892 253.364 C 209.777 256.844 209.918 259.617 210.06 262.39 C 210.273 271.181 210.486 279.972 210.965 289.458 C 212.843 291.606 214.454 293.061 216.069 294.49 C 216.071 294.465 216.097 294.507 216.22 294.735 C 216.625 295.163 216.907 295.363 217.194 295.777 C 217.198 295.991 217.207 296.418 217.538 296.66 C 219.843 297.07 221.815 297.378 223.789 297.381 C 249.258 297.426 274.727 297.428 300.196 297.441 C 297.38 298.421 294.561 300.259 291.75 300.248 C 267.833 300.147 243.912 299.896 220.007 299.183 C 216.154 299.068 212.375 296.443 208.346 294.346 C 207.482 292.945 206.833 292.176 206.184 291.408 C 206.023 291.127 205.82 290.882 205.377 290.535 C 205.182 288.356 205.183 286.317 205.514 283.728 C 206.279 281.921 206.714 280.663 207.149 279.406 C 207.153 278.016 207.158 276.626 207.156 274.819 C 207.159 271.667 207.167 268.933 207.173 265.801 C 207.507 256.045 207.843 246.687 208.183 236.864 Z"/>
  <path fill="#D28F68" opacity="1.000000" stroke="none" d="M 206.82 279.518 C 206.714 280.663 206.279 281.921 205.514 283.29 C 205.619 282.145 206.055 280.887 206.82 279.518 Z"/>
  <path fill="#F6EFF9" opacity="1.000000" stroke="none" d="M 352.449 233.825 C 352.396 238.692 352.321 243.102 352.157 248.193 C 351.884 249.158 351.701 249.44 351.224 249.371 C 350.678 247.077 350.214 245.137 350.203 243.194 C 350.134 230.263 350.161 217.332 350.161 203.932 C 350.168 193.11 350.17 182.756 350.174 171.948 C 350.178 168.465 350.18 165.435 350.396 162.161 C 350.779 161.078 350.948 160.24 351.125 158.947 C 351.12 155.46 351.106 152.426 351.104 148.945 C 350.801 141.799 350.487 135.1 350.172 128.402 C 350.172 127.014 350.172 125.625 350.169 123.426 C 350.162 121.565 350.157 120.515 350.178 119.416 C 350.204 119.367 350.225 119.258 350.225 119.258 C 350.956 123.75 352.296 128.239 352.321 132.734 C 352.502 166.278 352.424 199.823 352.449 233.825 Z"/>
  <path fill="#E9E4EE" opacity="1.000000" stroke="none" d="M 332.527 116.404 C 329.73 116.241 327.289 116.073 324.535 115.674 C 327.893 115.408 331.564 115.374 335.69 115.39 C 335.057 115.759 333.97 116.079 332.527 116.404 Z"/>
  <path fill="#E9E4EE" opacity="1.000000" stroke="none" d="M 346.095 115.954 C 345.363 116.133 344.365 116.107 343.279 115.781 C 344.071 115.57 344.949 115.66 346.095 115.954 Z"/>
  <path fill="#E9E4EE" opacity="1.000000" stroke="none" d="M 348.156 119.409 C 348.171 118.904 348.185 118.399 348.228 117.515 C 348.843 117.659 349.429 118.182 350.12 118.981 C 350.225 119.258 350.204 119.367 349.846 119.403 C 349.044 119.428 348.6 119.419 348.156 119.409 Z"/>
  <path fill="#C4B8CC" opacity="1.000000" stroke="none" d="M 319.934 284.681 C 319.934 284.681 319.502 284.904 319.109 285.216 C 318.481 285.802 318.245 286.075 318.009 286.348 C 315.354 288.683 312.699 291.019 309.453 293.138 C 308.643 289.735 308.426 286.549 308.549 283.31 C 316.605 277.857 324.253 272.358 332.072 267.112 C 334.887 265.224 338.111 263.948 340.995 262.687 C 333.873 270.214 326.904 277.448 319.934 284.681 Z"/>
  <path fill="#D99766" opacity="1.000000" stroke="none" d="M 319.978 285.114 C 326.904 277.448 333.873 270.214 341.01 262.692 C 341.177 262.403 341.173 262.376 341.384 262.266 C 341.856 261.96 342.042 261.708 342.441 261.236 C 344.887 258.904 347.047 256.737 349.194 254.942 C 348.049 257.636 347.07 260.05 345.747 262.258 C 343.679 265.713 341.379 269.029 339.178 272.404 C 336.66 275.239 334.143 278.075 331.4 281.158 C 327.4 284.362 323.625 287.321 319.513 290.341 C 319.457 288.785 319.739 287.166 319.978 285.114 Z"/>
  <path fill="#C2B6CF" opacity="1.000000" stroke="none" d="M 308.209 283.363 C 308.426 286.549 308.643 289.735 309.139 293.246 C 308.202 294.297 306.986 295.024 305.421 295.746 C 305.072 295.739 305.068 295.421 305.113 294.952 C 304.855 285.938 304.394 277.395 304.308 268.849 C 304.257 263.746 302.808 258.1 308.178 254.835 C 308.195 258.993 308.203 262.687 308.202 266.82 C 308.198 269.297 308.202 271.337 308.2 273.832 C 308.199 277.313 308.204 280.338 308.209 283.363 Z"/>
  <path fill="#D28F68" opacity="1.000000" stroke="none" d="M 217.207 296.418 C 217.207 296.418 217.198 295.991 217.66 295.761 C 247.104 295.495 276.086 295.458 305.068 295.421 C 305.068 295.421 305.072 295.739 305.093 295.899 C 305.114 296.058 305.062 296.311 304.578 296.415 C 275.132 296.485 246.17 296.452 217.207 296.418 Z"/>
  <path fill="#C67748" opacity="1.000000" stroke="none" d="M 217.538 296.66 C 246.17 296.452 275.132 296.485 304.541 296.538 C 303.636 296.845 302.283 297.133 300.563 297.431 C 274.727 297.428 249.258 297.426 223.789 297.381 C 221.815 297.378 219.843 297.07 217.538 296.66 Z"/>
  <path fill="#D28F68" opacity="1.000000" stroke="none" d="M 206.232 291.718 C 206.833 292.176 207.482 292.945 208.149 294.049 C 207.538 293.599 206.909 292.814 206.232 291.718 Z"/>
  <path fill="#D99766" opacity="1.000000" stroke="none" d="M 318.248 286.222 C 318.245 286.075 318.481 285.802 318.965 285.412 C 318.972 285.562 318.73 285.829 318.248 286.222 Z"/>
  <path fill="#E29E6A" opacity="1.000000" stroke="none" d="M 339.586 272.48 C 341.379 269.029 343.679 265.713 345.747 262.258 C 347.07 260.05 348.049 257.636 349.199 254.886 C 349.216 254.458 349.315 254.41 349.479 254.271 C 349.852 253.933 350.031 253.711 350.215 253.21 C 350.266 252.786 350.285 252.616 350.524 252.255 C 350.928 251.518 351.112 250.971 351.392 250.262 C 351.489 250.1 351.517 249.723 351.517 249.723 C 351.701 249.44 351.884 249.158 352.192 248.653 C 357.13 249.298 358.331 252.973 359.191 257.052 C 359.825 260.061 360.76 263.007 361.867 266.19 C 362.172 269.431 362.172 272.462 362.168 275.947 C 361.402 275.839 360.278 275.438 359.943 274.686 C 358.627 271.734 356.878 272.207 354.055 272.642 C 349.481 273.346 344.693 272.657 339.586 272.48 Z"/>
  <path fill="#E4DCEC" opacity="1.000000" stroke="none" d="M 349.819 128.537 C 350.487 135.1 350.801 141.799 350.725 148.988 C 349.609 150.754 348.461 151.959 348.236 153.317 C 347.377 158.497 347.244 163.836 345.956 168.89 C 345.342 171.298 342.938 174.757 341.001 175 C 337.186 175.478 333.131 174.045 329.055 173.054 C 327.713 169.208 324.778 169.444 321.913 169.442 C 293.333 169.423 264.753 169.39 236.07 169.02 C 233.189 164.279 228.736 165.485 224.735 165.432 C 217.488 165.337 217.552 165.479 216.044 172.511 C 215.394 175.541 214.152 178.445 213.177 180.955 C 213.175 177.802 213.173 175.1 213.171 172.398 C 213.17 171.649 213.17 170.901 213.383 169.536 C 213.456 167.747 213.314 166.574 213.172 165.401 C 213.173 163.36 213.173 161.319 213.175 158.84 C 214.053 156.59 215.386 154.856 215.717 152.949 C 216.444 148.764 218.703 148.12 222.485 148.668 C 234.408 150.396 246.355 151.987 258.325 153.352 C 266.05 154.232 273.825 155.003 281.589 155.125 C 289.189 155.244 296.801 154.391 304.413 154.125 C 315.115 153.752 325.822 153.315 336.526 153.329 C 341.704 153.335 345.368 150.662 346.203 145.481 C 347.112 139.849 348.364 134.273 349.819 128.537 Z"/>
  <path fill="#DCD4E4" opacity="1.000000" stroke="none" d="M 233.175 137.402 C 226.228 132.475 225.19 123.484 230.996 116.705 C 231.93 116.404 232.687 116.405 233.821 116.41 C 234.2 116.414 234.195 116.909 233.877 117.307 C 230.044 119.722 229.126 122.851 230.046 126.551 C 230.955 130.202 232.121 133.788 233.175 137.402 Z"/>
  <path fill="#E4DCEC" opacity="1.000000" stroke="none" d="M 347.973 119.639 C 348.6 119.419 349.044 119.428 349.82 119.452 C 350.157 120.515 350.162 121.565 350.162 123.009 C 349.369 122.225 348.58 121.047 347.973 119.639 Z"/>
  <path fill="#C28A6B" opacity="1.000000" stroke="none" d="M 209.969 124.375 C 210.184 124.52 210.2 124.713 210.171 125.195 C 210.007 125.13 209.888 124.777 209.969 124.375 Z"/>
  <path fill="#EEE4F9" opacity="1.000000" stroke="none" d="M 211.259 283.362 C 211.256 281.671 211.253 279.98 211.606 277.701 C 212.367 272.877 212.772 268.64 213.529 264.268 C 214.648 260.865 215.741 257.632 216.091 254.321 C 216.49 250.54 218.281 249.483 221.882 249.285 C 225.85 249.067 229.767 247.929 233.964 247.439 C 236.411 248.231 238.594 249.224 240.788 249.25 C 256.247 249.439 271.709 249.429 287.178 249.86 C 288.139 251.368 289.254 252.401 290.006 253.652 C 291.115 255.493 292.446 257.401 292.824 259.44 C 293.591 263.577 293.462 267.886 294.295 272.003 C 295.279 276.872 296.679 281.687 298.297 286.387 C 299.531 289.972 298.452 292.063 294.766 293.488 C 291.892 293.843 289.431 294.357 286.967 294.367 C 263.344 294.462 239.721 294.472 216.097 294.507 C 216.097 294.507 216.071 294.465 216.035 294.121 C 214.42 290.306 212.839 286.834 211.259 283.362 Z"/>
  <path fill="#EAE1F4" opacity="1.000000" stroke="none" d="M 233.705 247.191 C 229.767 247.929 225.85 249.067 221.882 249.285 C 218.281 249.483 216.49 250.54 216.091 254.321 C 215.741 257.632 214.648 260.865 213.528 263.884 C 212.531 262.218 211.889 260.802 211.247 259.385 C 211.246 257.025 211.246 254.664 211.606 251.703 C 212.362 246.862 212.758 242.621 213.155 238.38 C 213.152 237.641 213.15 236.901 213.384 235.491 C 214.833 228.642 216.086 222.469 217.242 216.279 C 217.869 212.923 218.866 211.043 223.162 211.769 C 231.09 213.107 239.171 213.51 247.155 214.559 C 248.595 214.749 249.872 216.17 250.764 217.023 C 245.981 217.116 241.629 216.947 237.356 217.448 C 235.916 217.616 233.419 219.786 233.594 220.515 C 234.01 222.246 235.59 223.819 237.003 225.128 C 237.559 225.644 238.923 225.322 239.919 225.322 C 267.367 225.33 294.814 225.378 322.261 225.239 C 324.385 225.229 326.502 223.907 329.003 223.298 C 332.884 224.638 336.352 225.979 339.895 227.076 C 343.073 228.06 345.075 226.634 345.604 223.442 C 346.248 219.555 346.434 215.581 347.269 211.742 C 347.821 209.205 349.166 206.842 350.156 204.401 C 350.161 217.332 350.134 230.263 350.203 243.194 C 350.214 245.137 350.678 247.077 351.224 249.371 C 351.517 249.723 351.489 250.1 351.022 250.264 C 350.064 250.467 349.573 250.506 348.627 250.534 C 344.525 250.546 340.876 250.569 336.789 250.542 C 334.3 250.487 332.25 250.481 329.73 250.454 C 325.105 250.426 320.913 250.088 316.807 250.535 C 314.203 250.818 311.726 252.268 308.936 253.244 C 308.506 253.305 308.333 253.317 307.919 253.154 C 302.656 254.152 299.863 257.272 300.226 262.471 C 300.816 270.904 301.545 279.335 302.553 287.727 C 303.271 293.7 301.235 295.442 295.177 293.413 C 298.452 292.063 299.531 289.972 298.297 286.387 C 296.679 281.687 295.279 276.872 294.295 272.003 C 293.462 267.886 293.591 263.577 292.824 259.44 C 292.446 257.401 291.115 255.493 290.006 253.652 C 289.254 252.401 288.139 251.368 287.609 249.8 C 289.03 249.344 290.028 249.289 291.026 249.31 C 293.886 249.369 296.809 248.965 296.88 245.464 C 296.958 241.572 293.818 241.348 290.81 241.351 C 273.669 241.371 256.528 241.381 239.387 241.359 C 235.422 241.353 232.758 242.478 233.705 247.191 Z"/>
  <path fill="#E6DEEF" opacity="1.000000" stroke="none" d="M 213.179 181.405 C 214.152 178.445 215.394 175.541 216.044 172.511 C 217.552 165.479 217.488 165.337 224.735 165.432 C 228.736 165.485 233.189 164.279 235.711 169.121 C 234.843 171.552 233.605 173.639 233.894 175.487 C 234.031 176.356 237.102 177.296 238.846 177.304 C 266.778 177.421 294.711 177.359 322.643 177.445 C 325.852 177.455 328.176 176.66 329.176 173.402 C 333.131 174.045 337.186 175.478 341.001 175 C 342.938 174.757 345.342 171.298 345.956 168.89 C 347.244 163.836 347.377 158.497 348.236 153.317 C 348.461 151.959 349.609 150.754 350.713 149.436 C 351.106 152.426 351.12 155.46 350.837 159.028 C 350.421 160.51 350.301 161.458 350.182 162.405 C 350.18 165.435 350.178 168.465 349.818 172.087 C 349.054 173.363 348.376 174.012 348.286 174.734 C 347.515 180.991 346.78 187.255 346.177 193.53 C 345.791 197.555 344.695 200.798 339.811 200.706 C 335.867 200.631 331.925 200.464 328.095 200.005 C 328.955 194.712 327.883 193.517 322.247 193.496 C 297.886 193.408 273.525 193.372 249.027 192.977 C 246.148 190.914 243.496 190.183 240.85 193.363 C 240.068 193.379 239.62 193.349 239.053 192.994 C 234.608 191.727 230.29 190.751 225.955 189.851 C 219.262 188.462 217.099 190.222 216.054 197.013 C 215.461 200.866 214.153 204.609 213.167 208.401 C 212.835 204.687 212.504 200.972 212.414 196.496 C 212.829 190.958 213.004 186.182 213.179 181.405 Z"/>
  <path fill="#E8E0F1" opacity="1.000000" stroke="none" d="M 327.982 200.339 C 331.925 200.464 335.867 200.631 339.811 200.706 C 344.695 200.798 345.791 197.555 346.177 193.53 C 346.78 187.255 347.515 180.991 348.286 174.734 C 348.376 174.012 349.054 173.363 349.815 172.541 C 350.17 182.756 350.168 193.11 350.161 203.932 C 349.166 206.842 347.821 209.205 347.269 211.742 C 346.434 215.581 346.248 219.555 345.604 223.442 C 345.075 226.634 343.073 228.06 339.895 227.076 C 336.352 225.979 332.884 224.638 329.097 222.935 C 329.156 217.446 325.729 217.381 322.184 217.366 C 298.531 217.264 274.878 217.14 251.224 217.022 C 249.872 216.17 248.595 214.749 247.155 214.559 C 239.171 213.51 231.09 213.107 223.162 211.769 C 218.866 211.043 217.869 212.923 217.242 216.279 C 216.086 222.469 214.833 228.642 213.382 235.121 C 212.507 234.01 211.87 232.599 211.489 230.733 C 211.581 229.647 211.417 229.015 211.252 228.383 C 211.25 225.694 211.248 223.005 211.577 219.744 C 212.326 217.91 212.742 216.648 213.159 215.386 C 213.161 213.349 213.163 211.312 213.166 208.838 C 214.153 204.609 215.461 200.866 216.054 197.013 C 217.099 190.222 219.262 188.462 225.955 189.851 C 230.29 190.751 234.608 191.727 238.673 193.049 C 236.731 194.858 235.049 196.288 233.368 197.717 C 235.219 198.954 237.067 200.195 238.927 201.418 C 239.044 201.495 239.253 201.432 239.419 201.432 C 267.348 201.432 295.276 201.449 323.204 201.384 C 324.797 201.38 326.389 200.703 327.982 200.339 Z"/>
  <path fill="#E2DAEA" opacity="1.000000" stroke="none" d="M 213.177 180.955 C 213.004 186.182 212.829 190.958 212.413 196.068 C 212.262 188.5 212.353 180.597 212.807 172.546 C 213.173 175.1 213.175 177.802 213.177 180.955 Z"/>
  <path fill="#E6DCF0" opacity="1.000000" stroke="none" d="M 211.229 259.854 C 211.889 260.802 212.531 262.218 213.174 264.019 C 212.772 268.64 212.367 272.877 211.615 277.279 C 211.248 271.737 211.229 266.03 211.229 259.854 Z"/>
  <path fill="#E6DCF0" opacity="1.000000" stroke="none" d="M 212.794 238.531 C 212.758 242.621 212.362 246.862 211.617 251.261 C 211.656 247.173 212.045 242.927 212.794 238.531 Z"/>
  <path fill="#E6DCF0" opacity="1.000000" stroke="none" d="M 211.238 283.799 C 212.839 286.834 214.42 290.306 216.033 294.147 C 214.454 293.061 212.843 291.606 211.184 289.814 C 211.163 287.73 211.19 285.982 211.238 283.799 Z"/>
  <path fill="#C28A6B" opacity="1.000000" stroke="none" d="M 210.125 261.945 C 209.918 259.617 209.777 256.844 209.843 253.747 C 210.098 256.115 210.145 258.808 210.125 261.945 Z"/>
  <path fill="#E4DCEC" opacity="1.000000" stroke="none" d="M 212.829 215.501 C 212.742 216.648 212.326 217.91 211.59 219.296 C 211.679 218.152 212.089 216.885 212.829 215.501 Z"/>
  <path fill="#E2DAEA" opacity="1.000000" stroke="none" d="M 212.959 165.644 C 213.314 166.574 213.456 167.747 213.383 169.162 C 213.028 168.232 212.887 167.059 212.959 165.644 Z"/>
  <path fill="#E4DCEC" opacity="1.000000" stroke="none" d="M 211.237 228.723 C 211.417 229.015 211.581 229.647 211.497 230.349 C 211.239 229.968 211.23 229.515 211.237 228.723 Z"/>
  <path fill="#D7CFE0" opacity="1.000000" stroke="none" d="M 233.37 137.538 C 232.121 133.788 230.955 130.202 230.046 126.551 C 229.126 122.851 230.044 119.722 233.872 117.555 C 231.748 124.435 235.162 130.888 236.176 137.99 C 236.176 138.401 236.169 138.41 235.837 138.408 C 235.061 138.405 234.618 138.404 234.174 138.403 C 234.015 138.124 233.812 137.881 233.37 137.538 Z"/>
  <path fill="#D7CFE0" opacity="1.000000" stroke="none" d="M 238.788 138.418 C 239.418 138.912 239.678 139.4 240.058 140.137 C 239.702 140.692 239.225 140.999 238.316 141.09 C 237.312 140.054 236.741 139.232 236.169 138.41 C 236.169 138.41 236.176 138.401 236.182 138.395 C 236.931 138.396 237.673 138.404 238.788 138.418 Z"/>
  <path fill="#D7CFE0" opacity="1.000000" stroke="none" d="M 247.318 140.806 C 247.44 140.276 247.683 140.069 248.031 139.628 C 268.532 139.446 288.898 139.461 309.733 139.53 C 309.1 140.518 308.005 142.255 306.895 142.264 C 287.947 142.426 268.997 142.39 250.047 142.318 C 249.187 142.314 248.33 141.566 247.318 140.806 Z"/>
  <path fill="#DCD4E4" opacity="1.000000" stroke="none" d="M 235.837 138.408 C 236.741 139.232 237.312 140.054 238.03 141.138 C 236.889 140.63 235.601 139.86 234.244 138.746 C 234.618 138.404 235.061 138.405 235.837 138.408 Z"/>
  <path fill="#E6DCF0" opacity="1.000000" stroke="none" d="M 294.766 293.488 C 301.235 295.442 303.271 293.7 302.553 287.727 C 301.545 279.335 300.816 270.904 300.226 262.471 C 299.863 257.272 302.656 254.152 307.911 253.426 C 308.143 254.053 308.142 254.234 308.161 254.412 C 308.181 254.411 308.169 254.372 308.169 254.372 C 302.808 258.1 304.257 263.746 304.308 268.849 C 304.394 277.395 304.855 285.938 305.113 294.952 C 276.086 295.458 247.104 295.495 217.656 295.547 C 216.907 295.363 216.625 295.163 216.22 294.735 C 239.721 294.472 263.344 294.462 286.967 294.367 C 289.431 294.357 291.892 293.843 294.766 293.488 Z"/>
  <path fill="#E8E0F1" opacity="1.000000" stroke="none" d="M 350.396 162.161 C 350.301 161.458 350.421 160.51 350.828 159.482 C 350.948 160.24 350.779 161.078 350.396 162.161 Z"/>
  <path fill="#CAC0D3" opacity="1.000000" stroke="none" d="M 337.228 250.592 C 340.876 250.569 344.525 250.546 348.711 250.809 C 349.6 251.546 349.952 251.996 350.304 252.446 C 350.285 252.616 350.266 252.786 350.021 253.318 C 349.548 253.866 349.388 254.11 349.315 254.41 C 349.315 254.41 349.216 254.458 349.211 254.514 C 347.047 256.737 344.887 258.904 342.247 261.366 C 341.522 261.86 341.324 262.099 341.173 262.376 C 341.173 262.376 341.177 262.403 341.162 262.397 C 338.111 263.948 334.887 265.224 332.072 267.112 C 324.253 272.358 316.605 277.857 308.549 283.31 C 308.204 280.338 308.199 277.313 308.578 273.837 C 309.933 273.21 311.121 273.333 311.839 272.81 C 317.728 268.514 323.714 264.316 329.284 259.63 C 332.319 257.078 334.605 253.634 337.228 250.592 Z"/>
  <path fill="#C4B8CC" opacity="1.000000" stroke="none" d="M 341.384 262.266 C 341.324 262.099 341.522 261.86 341.959 261.53 C 342.042 261.708 341.856 261.96 341.384 262.266 Z"/>
  <path fill="#D1C8DB" opacity="1.000000" stroke="none" d="M 336.789 250.542 C 334.605 253.634 332.319 257.078 329.284 259.63 C 323.714 264.316 317.728 268.514 311.839 272.81 C 311.121 273.333 309.933 273.21 308.584 273.382 C 308.202 271.337 308.198 269.297 308.562 266.809 C 316.02 261.065 323.11 255.77 330.2 250.476 C 332.25 250.481 334.3 250.487 336.789 250.542 Z"/>
  <path fill="#D9D1E3" opacity="1.000000" stroke="none" d="M 329.73 250.454 C 323.11 255.77 316.02 261.065 308.57 266.371 C 308.203 262.687 308.195 258.993 308.178 254.835 C 308.169 254.372 308.181 254.411 308.382 254.254 C 308.786 253.796 308.989 253.495 309.192 253.195 C 311.726 252.268 314.203 250.818 316.807 250.535 C 320.913 250.088 325.105 250.426 329.73 250.454 Z"/>
  <path fill="#D9D1E3" opacity="1.000000" stroke="none" d="M 350.524 252.255 C 349.952 251.996 349.6 251.546 349.165 250.821 C 349.573 250.506 350.064 250.467 350.925 250.426 C 351.112 250.971 350.928 251.518 350.524 252.255 Z"/>
  <path fill="#D99766" opacity="1.000000" stroke="none" d="M 349.479 254.271 C 349.388 254.11 349.548 253.866 349.988 253.572 C 350.031 253.711 349.852 253.933 349.479 254.271 Z"/>
  <path fill="#9F99A5" opacity="1.000000" stroke="none" d="M 329.055 173.054 C 328.176 176.66 325.852 177.455 322.643 177.445 C 294.711 177.359 266.778 177.421 238.846 177.304 C 237.102 177.296 234.031 176.356 233.894 175.487 C 233.605 173.639 234.843 171.552 235.813 169.462 C 264.753 169.39 293.333 169.423 321.913 169.442 C 324.778 169.444 327.713 169.208 329.055 173.054 Z"/>
  <path fill="#A09AA7" opacity="1.000000" stroke="none" d="M 233.964 247.439 C 232.758 242.478 235.422 241.353 239.387 241.359 C 256.528 241.381 273.669 241.371 290.81 241.351 C 293.818 241.348 296.958 241.572 296.88 245.464 C 296.809 248.965 293.886 249.369 291.026 249.31 C 290.028 249.289 289.03 249.344 287.6 249.423 C 271.709 249.429 256.247 249.439 240.788 249.25 C 238.594 249.224 236.411 248.231 233.964 247.439 Z"/>
  <path fill="#9F99A7" opacity="1.000000" stroke="none" d="M 250.764 217.023 C 274.878 217.14 298.531 217.264 322.184 217.366 C 325.729 217.381 329.156 217.446 328.716 222.83 C 326.502 223.907 324.385 225.229 322.261 225.239 C 294.814 225.378 267.367 225.33 239.919 225.322 C 238.923 225.322 237.559 225.644 237.003 225.128 C 235.59 223.819 234.01 222.246 233.594 220.515 C 233.419 219.786 235.916 217.616 237.356 217.448 C 241.629 216.947 245.981 217.116 250.764 217.023 Z"/>
  <path fill="#C2B6CF" opacity="1.000000" stroke="none" d="M 308.936 253.244 C 308.989 253.495 308.786 253.796 308.363 254.255 C 308.142 254.234 308.143 254.053 308.151 253.601 C 308.333 253.317 308.506 253.305 308.936 253.244 Z"/>
  <path fill="#9F99A6" opacity="1.000000" stroke="none" d="M 328.095 200.005 C 326.389 200.703 324.797 201.38 323.204 201.384 C 295.276 201.449 267.348 201.432 239.419 201.432 C 239.253 201.432 239.044 201.495 238.927 201.418 C 237.067 200.195 235.219 198.954 233.368 197.717 C 235.049 196.288 236.731 194.858 238.792 193.374 C 239.62 193.349 240.068 193.379 241.291 193.415 C 244.432 193.387 246.798 193.352 249.164 193.317 C 273.525 193.372 297.886 193.408 322.247 193.496 C 327.883 193.517 328.955 194.712 328.095 200.005 Z"/>
  <path fill="#E8E0F1" opacity="1.000000" stroke="none" d="M 249.027 192.977 C 246.798 193.352 244.432 193.387 241.625 193.37 C 243.496 190.183 246.148 190.914 249.027 192.977 Z"/>
</svg>
